<svg preserveAspectRatio="none" width="100%" height="100%" overflow="visible" style="display: block;" viewBox="0 0 54.7879 16" fill="none" xmlns="http://www.w3.org/2000/svg">
<g id="logo" clip-path="url(#clip0_0_486)">
<g id="Group">
<path id="Vector" d="M15.2506 2.73104H18.5711C20.9631 2.73104 22.2033 3.66723 22.2033 5.8338C22.2033 7.56577 21.2952 9.18399 18.5914 9.18399H17.8528C17.5274 9.18399 17.27 9.04358 17.1412 8.76274V12.454H15.2506V2.73104H15.2506ZM17.1413 4.33593V7.59918H18.544C19.6893 7.59918 20.2652 7.09097 20.2652 5.90734C20.2652 4.68364 19.6079 4.33585 18.483 4.33585L17.1413 4.33593Z" fill="var(--fill-0, #242461)"/>
<path id="Vector_2" d="M22.9565 10.5221C22.9565 9.21817 23.7832 8.64302 24.9962 8.39565C25.8297 8.22176 26.8597 8.14822 27.3476 8.10808V7.86064C27.3476 6.91111 27.0359 6.49652 26.1753 6.49652C25.3417 6.49652 24.9148 6.74389 24.9148 7.80043H23.1665C23.0106 5.8879 24.2914 5.01858 26.2498 5.01858C27.7744 5.01858 29.1772 5.58032 29.1772 7.68008V12.4546H27.334L27.3476 10.7828C27.185 11.7658 26.548 12.5348 25.2334 12.5348C23.9255 12.5348 22.9565 11.7792 22.9565 10.522V10.5221ZM27.3476 10.268V9.03087C26.9884 9.07768 26.514 9.16462 26.2024 9.2315C25.2469 9.43213 24.9081 9.7397 24.9081 10.3549C24.9081 10.9033 25.274 11.2443 25.8025 11.2443C26.4802 11.2443 27.2257 10.8498 27.3476 10.268Z" fill="var(--fill-0, #242461)"/>
<path id="Vector_3" d="M30.5399 8.77677C30.5399 6.42957 31.8546 5.01858 33.9688 5.01858C36.0423 5.01858 37.0859 6.21554 37.0249 7.76029H35.2224C35.1885 6.95118 34.782 6.51645 33.9688 6.51645C32.8777 6.50978 32.4101 7.30556 32.4101 8.74322C32.4101 10.3482 32.9862 11.0436 34.1178 11.0703C34.6329 11.0904 35.2631 10.7293 35.2495 9.97366H37.0385C37.0792 11.5585 35.8188 12.5816 34.0501 12.5816C31.78 12.5816 30.5399 11.0437 30.5399 8.77677Z" fill="var(--fill-0, #242461)"/>
<path id="Vector_4" d="M38.4146 2.73104H40.3187V7.59251L41.1523 6.22165L43.6596 2.73104H45.9432L42.8193 6.89034L46.194 12.454H43.9509L41.5182 8.20773L40.3187 9.71901V12.454H38.4146V2.73104Z" fill="var(--fill-0, #242461)"/>
<path id="Vector_5" d="M47.0341 3.01146C47.0341 2.31604 47.5559 1.82783 48.1997 1.82783C48.8435 1.82783 49.3652 2.31604 49.3652 3.01146C49.3652 3.71363 48.8367 4.20169 48.1997 4.20169C47.5559 4.20169 47.0341 3.71356 47.0341 3.01146ZM47.2577 5.15803H49.1281L49.1212 12.4536H47.2577V5.15803Z" fill="var(--fill-0, #242461)"/>
<path id="Vector_6" d="M51.2426 10.7485L51.229 7.27784C51.229 6.97019 51.3984 6.7295 51.6966 6.65588H50.3549V5.15801H51.2426L51.6017 3.06499H53.0858V5.15801H54.7663V6.65588H53.0858V10.2202C53.0858 10.7952 53.2349 10.9825 53.777 10.9825C54.2039 10.9825 54.5157 10.9758 54.7867 10.949V12.4469C54.3936 12.5472 53.7295 12.5472 53.1467 12.5472C51.9473 12.5472 51.2426 11.9454 51.2426 10.7485Z" fill="var(--fill-0, #242461)"/>
</g>
<g id="Layer_1" clip-path="url(#clip1_0_486)">
<path id="Vector_7" d="M5.94973 0H1.37968C0.618274 0 0.000976562 0.609158 0.000976562 1.36053V6.88212C0.000976562 7.26378 0.292682 7.59675 0.677994 7.62181C1.10104 7.64831 1.45225 7.3182 1.45225 6.90718V1.43213H5.88152C8.35013 1.43213 10.4102 3.36623 10.4479 5.80229C10.4755 7.5767 9.44294 9.12054 7.93507 9.85451C7.55121 10.0421 7.13542 10.1767 6.69931 10.2491C6.4555 10.2906 6.20515 10.3114 5.94973 10.3114C5.80243 10.3114 5.65977 10.362 5.54613 10.4544L3.96294 11.7435L1.4566 13.77V11.7435H1.45442V10.6484C1.45442 10.522 1.50529 10.4007 1.59592 10.3114L7.18331 5.63115V7.1356C7.18331 7.51727 7.47501 7.85024 7.86033 7.8753C8.28337 7.9018 8.63458 7.57169 8.63458 7.16067V3.93837C8.63458 3.54238 8.30949 3.2223 7.90894 3.2223H4.66826C4.28222 3.2223 3.9448 3.51016 3.9194 3.89039C3.89183 4.30714 4.22707 4.65443 4.64359 4.65443H6.10719L1.46458 8.54339L1.43773 8.56559L0.37105 9.45852C0.354361 9.47213 0.339848 9.48717 0.326787 9.50364C0.14828 9.72347 0.0408865 9.9877 0.0133124 10.2584C0.00823291 10.3042 0.00605601 10.3507 0.00605601 10.3973C0.00605601 10.4073 0.00605601 10.4181 0.00678164 10.4281C0.00605601 10.4424 0.00533037 10.4574 0.00533037 10.4725V15.2823C0.00533037 15.5594 0.167147 15.8108 0.420393 15.9296C0.51908 15.9754 0.625022 15.9984 0.730965 15.9984C0.895684 15.9984 1.05823 15.9432 1.19102 15.8365L6.19775 11.7876C6.24361 11.7505 6.30014 11.7287 6.35928 11.7242C9.4142 11.4845 11.8697 9.0006 11.8999 5.92975C11.9319 2.6652 9.24992 0 5.94973 0Z" fill="var(--fill-0, #0080FF)"/>
</g>
</g>
<defs>
<clipPath id="clip0_0_486">
<rect width="54.7879" height="16" fill="white"/>
</clipPath>
<clipPath id="clip1_0_486">
<rect width="11.8992" height="15.9984" fill="white" transform="translate(0.000488281)"/>
</clipPath>
</defs>
</svg>
